<svg width="14" height="14" viewBox="0 0 14 14" fill="none" xmlns="http://www.w3.org/2000/svg">
<path fill-rule="evenodd" clip-rule="evenodd" d="M13.332 6.16528C13.0879 2.87286 10.4592 0.244121 7.16675 -2.69493e-07L7.16675 1.98704C7.16675 2.26395 6.94227 2.48843 6.66536 2.48843C6.38846 2.48843 6.16398 2.26395 6.16398 1.98704L6.16398 -3.13326e-07C2.87155 0.24412 0.242819 2.87286 -0.00130211 6.16528L1.98574 6.16528C2.26264 6.16528 2.48712 6.38976 2.48712 6.66667C2.48712 6.94358 2.26264 7.16805 1.98574 7.16805L-0.00130216 7.16805C0.242819 10.4605 2.87155 13.0892 6.16398 13.3333L6.16398 11.3463C6.16398 11.0694 6.38846 10.8449 6.66536 10.8449C6.94227 10.8449 7.16675 11.0694 7.16675 11.3463L7.16675 13.3333C10.4592 13.0892 13.0879 10.4605 13.332 7.16806L11.345 7.16806C11.0681 7.16806 10.8436 6.94358 10.8436 6.66667C10.8436 6.38976 11.0681 6.16528 11.345 6.16528L13.332 6.16528ZM6.66536 4.82824C6.94227 4.82824 7.16675 5.05272 7.16675 5.32963L7.16675 6.16528L8.0024 6.16528C8.27931 6.16528 8.50379 6.38976 8.50379 6.66667C8.50379 6.94358 8.27931 7.16806 8.0024 7.16806L7.16675 7.16806L7.16675 8.0037C7.16675 8.28061 6.94227 8.50509 6.66536 8.50509C6.38846 8.50509 6.16398 8.28061 6.16398 8.0037L6.16398 7.16806L5.32833 7.16806C5.05142 7.16806 4.82694 6.94358 4.82694 6.66667C4.82694 6.38976 5.05142 6.16528 5.32833 6.16528L6.16398 6.16528L6.16398 5.32963C6.16398 5.05272 6.38846 4.82824 6.66536 4.82824Z" fill="#F14922"/>
</svg>
